<svg version="1.1" id="Layer_1" xmlns="http://www.w3.org/2000/svg" xmlns:xlink="http://www.w3.org/1999/xlink" x="0px" y="0px"
	 width="100%" viewBox="0 0 1024 544" enable-background="new 0 0 1024 544" xml:space="preserve">
<path fill="#000000" opacity="1.000000" stroke="none" 
	d="
M598.393616,71.429810 
	C645.449585,86.702980 674.994385,117.513474 683.304199,166.420792 
	C689.658081,203.816574 678.719849,236.183105 651.196289,262.633484 
	C645.800903,267.818451 639.506592,271.846466 633.135498,275.973083 
	C634.867981,277.914032 637.071289,278.290588 638.986450,279.151520 
	C677.935120,296.659851 699.869446,326.865479 704.287354,369.080505 
	C708.252808,406.971924 695.953674,439.443604 667.541260,465.062531 
	C648.734985,482.019714 626.193665,491.878326 600.848755,492.088104 
	C529.029297,492.682617 457.201904,492.292236 385.377869,492.419067 
	C380.851166,492.427063 379.505188,490.688171 379.747650,486.499908 
	C379.978394,482.514343 379.656830,478.499176 379.810822,474.506012 
	C379.937164,471.230316 378.524475,470.030426 375.354584,470.149017 
	C371.360413,470.298553 367.356873,470.217529 363.357483,470.202484 
	C356.983246,470.178497 356.826935,470.020050 356.771210,463.848297 
	C356.747131,461.182129 356.681305,458.514130 356.750427,455.849945 
	C356.816437,453.306305 355.651031,452.232147 353.145874,452.244476 
	C350.650665,452.256775 348.121735,452.309021 345.664124,451.953247 
	C330.358429,449.737488 321.519135,439.779297 320.834503,424.129669 
	C320.790802,423.131500 320.813385,422.130219 320.813538,421.130371 
	C320.826843,331.141663 320.840912,241.152939 320.855713,151.164230 
	C320.855927,149.831085 320.963470,148.489792 320.852844,147.166336 
	C320.519501,143.178833 322.029266,141.487244 326.278625,141.618317 
	C334.769348,141.880203 343.276367,141.572205 351.771881,141.740845 
	C355.404907,141.812973 356.883270,140.553497 356.796204,136.834152 
	C356.628601,129.672668 356.772583,122.503914 356.785919,115.338173 
	C356.801392,107.029366 356.800751,107.034119 364.878326,107.034363 
	C389.041962,107.035095 413.206665,106.911453 437.368317,107.129250 
	C442.335510,107.174026 445.652252,105.821487 448.653931,101.672745 
	C456.570923,90.730377 465.662170,80.735443 474.974976,70.950005 
	C477.066986,68.751823 479.256775,67.633026 482.379333,67.642578 
	C513.375122,67.737373 544.371399,67.686485 575.367371,67.742432 
	C583.078674,67.756348 590.561157,69.446213 598.393616,71.429810 
M436.500000,432.823914 
	C487.990509,432.819366 539.482361,433.031982 590.970947,432.716827 
	C615.967712,432.563843 633.841858,420.219666 643.834167,397.561218 
	C660.402222,359.991699 643.195007,304.086426 589.916077,291.610840 
	C578.496582,288.936920 578.802185,288.947449 578.496460,276.993134 
	C578.357544,271.559692 580.449951,269.928101 585.352356,270.051849 
	C594.307739,270.277985 602.878967,268.241730 611.197388,265.111023 
	C649.526794,250.685532 671.250488,211.923294 664.851685,169.455078 
	C657.848877,122.978561 616.605347,87.217476 569.712158,87.041351 
	C548.882385,86.963120 528.052124,87.027573 507.222076,87.024017 
	C493.453766,87.021667 493.536743,87.019852 493.408875,101.118835 
	C493.164185,128.103012 494.648987,155.084351 493.438354,182.071854 
	C493.124512,189.067627 493.339569,189.066589 486.076202,189.107376 
	C476.745056,189.159760 467.400909,188.943436 458.086365,189.369095 
	C446.907837,189.879944 436.357422,192.978470 427.231445,199.638672 
	C401.584259,218.356155 394.223846,246.661652 387.628510,275.357452 
	C393.545654,269.870026 398.830261,263.898743 405.039856,258.876282 
	C430.072052,238.629776 459.153198,230.140930 490.856110,229.793930 
	C518.182068,229.494827 545.514221,229.821487 572.842285,229.652847 
	C597.665039,229.499680 619.451599,207.569046 619.661560,182.839844 
	C619.908203,153.794678 597.845520,131.537109 568.612549,131.427078 
	C550.948914,131.360596 533.283569,131.545120 515.621399,131.370605 
	C501.466187,131.230743 503.354553,134.052994 503.039093,118.578072 
	C502.947510,114.084724 504.398102,112.520157 509.056183,112.571274 
	C530.050415,112.801651 551.055298,112.345451 572.043457,112.773598 
	C598.377686,113.310783 618.097656,126.088310 630.259277,148.817825 
	C642.724365,172.114334 641.902344,196.191223 627.476501,218.640274 
	C615.811707,236.792694 598.611694,246.763672 576.872803,248.448181 
	C574.988403,248.594208 572.663208,248.150772 572.171631,251.008133 
	C570.118591,262.940308 566.876709,274.702240 568.808716,287.073456 
	C571.703918,305.612427 577.827332,323.205444 584.031677,340.774994 
	C585.421082,344.709412 584.958008,347.495941 582.214111,350.690948 
	C564.624634,371.172058 550.198364,393.698822 539.683411,418.602325 
	C538.030151,422.517914 535.599976,423.416290 531.955811,423.075562 
	C527.910461,422.697357 523.479492,424.456024 521.111877,418.653625 
	C510.818207,393.426575 495.653992,371.145233 478.426208,350.220459 
	C475.969025,347.235962 475.583069,344.680756 476.841431,341.154419 
	C481.037842,329.394501 485.105225,317.575409 488.173981,305.462708 
	C489.414246,300.567322 491.312592,295.680908 490.613586,290.466980 
	C489.804474,290.208160 489.346954,289.957245 488.877808,289.933350 
	C487.882751,289.882660 486.879761,289.917175 485.883301,289.974182 
	C458.482574,291.541351 437.275452,303.987976 422.352295,326.850433 
	C407.536804,349.547943 402.706024,375.330414 400.272308,401.743866 
	C398.234680,423.858887 399.564636,446.036591 399.060699,468.179474 
	C398.957886,472.696045 400.656647,473.755890 404.903809,473.748108 
	C468.560242,473.631317 532.217712,473.842072 595.873108,473.552032 
	C614.979492,473.464996 632.639648,467.602234 648.154419,456.218872 
	C687.502991,427.348389 697.969360,372.175751 672.026550,330.758606 
	C665.721863,320.693268 657.935303,312.030121 646.988647,305.309753 
	C664.275513,329.934631 670.113159,348.343292 668.144226,377.655029 
	C666.581482,400.920166 656.875000,420.659088 638.339661,435.414459 
	C624.127808,446.728027 607.656250,451.995636 589.619446,452.034302 
	C533.961792,452.153656 478.303589,452.142761 422.645844,452.057922 
	C406.900116,452.033936 409.207489,454.475189 408.924988,437.692963 
	C408.863220,434.025452 410.369476,432.675293 414.004700,432.766144 
	C421.165802,432.945007 428.334473,432.821228 436.500000,432.823914 
M383.872955,378.707153 
	C385.868347,368.933075 387.818451,359.146729 390.896454,349.635681 
	C397.297668,329.855774 406.880249,311.907623 422.072998,297.443451 
	C440.076019,280.303772 461.776581,271.660828 486.531860,270.757202 
	C490.752808,270.603149 492.336914,269.222351 491.443542,265.044922 
	C490.609650,261.145538 489.864838,257.220978 489.266174,253.279358 
	C488.814178,250.303406 487.471710,248.822479 484.295319,249.190369 
	C480.499939,249.630005 476.664154,249.744705 472.879974,250.253616 
	C442.814545,254.296814 417.873901,267.418945 399.486572,291.990417 
	C377.987152,320.720703 370.386139,354.047302 368.474579,388.935913 
	C367.346588,409.523773 367.875000,430.198547 367.373260,450.827271 
	C367.253052,455.768738 369.065582,457.105316 373.741425,457.193817 
	C378.700470,457.287659 379.949799,455.385925 379.839661,450.735382 
	C379.275604,426.920502 380.071472,403.161255 383.872955,378.707153 
M528.501953,289.306366 
	C524.171631,289.310089 519.833313,289.477600 515.513611,289.265503 
	C512.080261,289.096924 510.519806,290.257080 509.840210,293.812256 
	C506.932159,309.025330 502.585083,323.870911 497.356903,338.437836 
	C496.120331,341.883148 496.743835,344.366547 498.872925,347.128113 
	C505.690948,355.971588 511.947449,365.204437 517.260437,375.049744 
	C518.810303,377.921783 520.405579,380.769318 522.102112,383.849670 
	C524.054382,381.715332 523.609192,379.644836 523.622009,377.728851 
	C523.674316,369.901428 523.551392,362.072052 523.678406,354.246368 
	C523.727173,351.240051 522.907349,348.966064 520.795715,346.672638 
	C515.761780,341.205292 516.190857,333.103058 521.361511,328.261627 
	C526.319336,323.619598 534.054565,323.583313 539.101379,328.178528 
	C544.424316,333.025146 544.903076,340.968628 540.201477,346.619324 
	C539.151123,347.881653 537.473755,348.844360 537.462708,350.658813 
	C537.396362,361.566620 537.429810,372.475037 537.429810,383.383270 
	C539.685181,381.522125 541.013184,379.473053 542.158691,377.326538 
	C547.580872,367.166260 553.581665,357.343842 560.882202,348.451019 
	C564.033447,344.612488 564.508606,341.245605 562.908264,336.700195 
	C557.876953,322.409912 553.614563,307.876007 550.801941,292.966614 
	C550.300842,290.310547 549.114136,289.266235 546.488403,289.302399 
	C540.826904,289.380341 535.163513,289.314148 528.501953,289.306366 
M356.782318,343.500000 
	C356.786011,288.500488 356.791107,233.500961 356.790527,178.501450 
	C356.790466,174.334930 356.772858,170.168106 356.714874,166.002090 
	C356.696625,164.691071 356.725708,163.363846 355.257446,162.559967 
	C349.996704,159.679581 344.100922,162.949066 344.100281,168.795013 
	C344.092102,243.294327 344.081787,317.793640 344.079956,392.292969 
	C344.079681,403.292786 344.032684,414.293732 344.179718,425.291870 
	C344.251282,430.643890 346.265808,431.859741 352.403015,431.964996 
	C357.651489,432.054932 356.730469,428.538055 356.734558,425.499268 
	C356.770966,398.499542 356.771576,371.499756 356.782318,343.500000 
M378.320953,141.514526 
	C378.320953,176.693146 378.320953,211.871780 378.320953,247.050400 
	C378.727753,247.134155 379.134521,247.217911 379.541321,247.301666 
	C390.395935,205.476852 406.864014,165.998337 430.100220,128.019073 
	C415.976532,128.019073 403.524109,128.037933 391.071777,128.013824 
	C378.325897,127.989128 378.325928,127.970703 378.320953,141.514526 
M471.196899,101.986115 
	C446.831055,128.655579 417.433258,173.659958 416.383789,186.519257 
	C432.040802,173.002396 450.285614,168.543121 470.028992,168.891617 
	C473.971069,168.961197 474.683685,166.646271 474.664978,163.396866 
	C474.612274,154.234055 474.663818,145.070663 474.666077,135.907501 
	C474.668610,125.744713 474.725037,115.581131 474.597748,105.419899 
	C474.576447,103.719475 475.692749,100.520401 471.196899,101.986115 
M534.493774,269.998108 
	C538.321045,269.984528 542.148621,269.992767 545.975525,269.947327 
	C547.662598,269.927307 549.731445,269.890625 550.100647,267.916687 
	C551.240662,261.821777 552.919800,255.763977 552.769897,249.048889 
	C538.293457,249.048889 524.343445,249.033340 510.393555,249.063629 
	C507.966187,249.068893 507.315369,250.371002 507.791687,252.702698 
	C508.688324,257.092133 509.616638,261.499146 510.075958,265.945984 
	C510.419769,269.274719 512.095520,270.043884 515.025452,269.998413 
	C521.180969,269.902863 527.339294,269.987610 534.493774,269.998108 
z"/>
</svg>